<svg xmlns="http://www.w3.org/2000/svg" xmlns:xlink="http://www.w3.org/1999/xlink" version="1.1" width="1000" height="1000" viewBox="0 0 1000 1000" xml:space="preserve">
<desc>Created with Fabric.js 3.5.0</desc>
<defs>
</defs>
<rect x="0" y="0" width="100%" height="100%" fill="none"/>
<g transform="matrix(0 2.1944 -2.1944 0 499.9947 500.0095)" id="763953">
<path style="stroke: none; stroke-width: 1; stroke-dasharray: none; stroke-linecap: butt; stroke-dashoffset: 0; stroke-linejoin: miter; stroke-miterlimit: 4; is-custom-font: none; font-file-url: none; fill: rgba(0,0,0); fill-rule: nonzero; opacity: 1;" vector-effect="non-scaling-stroke" transform=" translate(-207.1431, -207.1431)" d="M 412.398 202.993 L 288.535 95.289 c -1.502 -1.305 -3.591 -1.699 -5.463 -1.027 c -1.873 0.67 -3.237 2.3 -3.568 4.261 l -8.938 52.887 H 40.554 c -2.684 0 -4.976 1.938 -5.423 4.583 l -3.054 18.067 c -0.27 1.597 0.177 3.23 1.223 4.467 c 1.045 1.237 2.581 1.95 4.2 1.95 h 103.982 l -2.208 15 H 8.134 c -2.684 0 -4.976 1.938 -5.423 4.583 l -2.634 15.584 c -0.27 1.597 0.177 3.229 1.223 4.467 c 1.045 1.236 2.581 1.949 4.2 1.949 h 159.196 l -2.206 15 H 63.505 c -2.684 0 -4.976 1.938 -5.423 4.583 l -2.505 14.817 c -0.271 1.597 0.177 3.229 1.222 4.467 c 1.046 1.237 2.582 1.95 4.201 1.95 h 190.721 l -8.628 51.053 c -0.366 2.168 0.593 4.346 2.439 5.538 c 0.908 0.586 1.945 0.879 2.982 0.879 c 1.07 0 2.141 -0.312 3.067 -0.935 l 160.272 -107.704 c 1.421 -0.955 2.316 -2.518 2.422 -4.225 C 414.385 205.776 413.689 204.116 412.398 202.993 z" stroke-linecap="round"/>
</g>
</svg>